<svg width="128" height="128" viewBox="0 0 128 128" fill="none" xmlns="http://www.w3.org/2000/svg" role="img" aria-label="Toby logo">
  <defs>
    <linearGradient id="tobySlate" x1="20" y1="14" x2="108" y2="114" gradientUnits="userSpaceOnUse">
      <stop stop-color="#3B4453"/>
      <stop offset="1" stop-color="#262C38"/>
    </linearGradient>
    <linearGradient id="tobySand" x1="34" y1="30" x2="94" y2="98" gradientUnits="userSpaceOnUse">
      <stop stop-color="#F2B85A"/>
      <stop offset="1" stop-color="#D88A2C"/>
    </linearGradient>
  </defs>

  <!-- Host boundary: the outer protected box -->
  <rect x="12" y="12" width="104" height="104" rx="28" fill="url(#tobySlate)"/>

  <!-- Sandbox: the inner scoped environment -->
  <rect x="30" y="30" width="68" height="68" rx="18" fill="url(#tobySand)"/>

  <!-- T for Toby, carved into the sandbox -->
  <path d="M44 46h40a3 3 0 0 1 3 3v6a3 3 0 0 1-3 3H71v23a3 3 0 0 1-3 3h-8a3 3 0 0 1-3-3V58H44a3 3 0 0 1-3-3v-6a3 3 0 0 1 3-3Z" fill="#2A3140"/>
</svg>
